<svg width="455" height="271" viewBox="0 0 455 271" fill="none" xmlns="http://www.w3.org/2000/svg">
<path d="M93.76 67H67V200.6H93.76V67ZM164.08 200.59H190.84V109.78H164.08V200.59ZM232.54 200.59H263.35L294.16 109.78H267.4C267.4 109.78 253.09 159.02 248.73 174.69H248.42C244.06 159.02 229.44 109.78 229.44 109.78H201.12L232.54 200.59ZM387.49 109.78H361.66V122.25C357.3 112.66 347.04 107.22 334.9 107.22C313.12 107.22 295.69 125.45 295.69 155.18C295.69 184.91 312.49 203.14 333.65 203.14C348.59 203.14 357.3 195.79 361.97 187.47V200.58H387.79L387.49 109.78ZM361.05 157.43C361.05 174.06 351.09 182.05 341.13 182.05C330.24 182.05 323.08 170.54 323.08 155.19C323.08 139.84 330.55 128.33 342.06 128.33C351.39 128.33 361.04 136.32 361.04 152.95V157.43H361.05ZM100.6 152.95C143.54 152.95 153.5 116.18 153.5 109.78H149.77C106.83 109.78 96.87 146.55 96.87 152.95H100.6ZM96.87 156.15C96.87 162.86 104.34 200.27 150.39 200.27H154.12C154.12 193.56 146.65 156.15 100.6 156.15H96.87ZM193.64 84.84C193.64 76.21 187.11 68.85 178.7 68.85C178.39 68.85 178.08 68.85 177.77 68.85C169.37 68.53 162.21 75.24 161.9 83.88C161.9 84.2 161.9 84.52 161.9 84.84C161.9 93.47 168.43 100.83 176.84 100.83C177.15 100.83 177.46 100.83 177.77 100.83C186.17 101.15 193.33 94.44 193.64 85.8C193.64 85.48 193.64 85.16 193.64 84.84Z" fill="#F5F5F5"/>
</svg>
