<?xml version="1.0" encoding="UTF-8"?>
<svg xmlns="http://www.w3.org/2000/svg" width="232" height="62" viewBox="0 0 232 62" fill="none">
  <path d="M192.537 2.15771C190.465 2.15771 189.15 3.41051 189.15 5.44438C189.15 6.99105 189.97 7.94225 191.617 7.94225C191.06 8.96305 189.676 9.48891 188.029 9.58945L187.503 12.5822C192.762 12.5513 195.461 8.99398 195.461 5.57585C195.461 3.13985 194.308 2.15771 192.53 2.15771H192.537Z" fill="white"></path>
  <path d="M182.646 43.8476C180.202 43.8476 179.653 41.2492 180.078 38.6972L181.208 32.2244C181.633 30.0281 181.842 28.0406 181.842 26.2697C181.842 20.8177 178.795 17.1289 173.126 17.1289C168.1 17.1289 164.055 20.315 161.155 26.0532C161.155 20.81 158.108 17.1289 152.44 17.1289C147.761 17.1289 144.01 19.8897 141.102 24.8545L142.17 19.2788C142.348 18.2966 141.597 17.3841 140.592 17.3841H127.708C126.927 17.3841 126.262 17.9409 126.131 18.7065L119.813 53.9396C119.635 54.9217 120.393 55.8265 121.39 55.8265H134.282C135.063 55.8265 135.728 55.2697 135.859 54.4964L139.393 34.4129C139.888 31.4356 141.025 30.3761 142.51 30.3761C143.786 30.3761 144.281 31.1572 144.281 32.3636C144.281 32.5724 144.281 32.7193 144.211 33.075L140.615 53.9473C140.445 54.9294 141.195 55.8342 142.193 55.8342H155.084C155.865 55.8342 156.53 55.2774 156.662 54.5041L160.072 34.4206C160.567 31.4433 161.704 30.3838 163.189 30.3838C164.465 30.3838 164.96 31.1649 164.96 32.3713C164.96 32.5801 164.96 32.7966 164.89 33.0828C164.89 33.0828 163.266 40.5377 162.965 43.8553C162.207 52.1996 167.605 56.4142 173.497 56.4142C185.02 56.4142 187.966 46.3841 185.623 42.5252C185.623 42.5252 184.742 43.8476 182.623 43.8476H182.646Z" fill="white"></path>
  <path d="M27.2524 37.1897C27.2524 37.151 27.2602 37.1433 27.2524 37.1897V37.1897Z" fill="white"></path>
  <path d="M36.3772 17.3379H30.6623L31.598 12.1643C31.8145 10.9811 30.902 9.89844 29.7033 9.89844H17.4615C16.5335 9.89844 15.7292 10.5635 15.5668 11.4838L14.5073 17.3379L6.52653 17.4075C5.5908 17.4075 5.02626 17.74 4.6628 18.784L1.47666 28.0331C1.12093 29.0771 1.89426 30.1598 2.9924 30.1598H12.2415L10.6097 39.5094C10.4009 40.855 10.1921 41.9995 10.0297 43.291C9.10173 50.568 12.8833 56.3603 21.4596 56.3603C30.0359 56.3603 35.5111 47.6062 32.6265 42.5254C32.6265 42.5254 31.6676 43.8478 29.7807 43.8478C26.0532 43.8478 26.8265 39.6022 27.2596 37.1894C27.2596 37.1894 27.2596 37.1971 27.2596 37.2048C27.2596 37.2048 27.2596 37.1971 27.2596 37.1894L28.4737 30.1598H33.0287C33.7092 30.1598 34.3201 29.7267 34.5444 29.0848L37.9007 19.4723C38.2641 18.4283 37.4908 17.3379 36.3849 17.3379H36.3772ZM27.2209 37.3904C27.2209 37.3904 27.2209 37.3595 27.2287 37.344C27.2287 37.3595 27.2287 37.375 27.2209 37.3904ZM27.0972 38.071C27.0895 38.1251 27.0895 38.1328 27.0972 38.071V38.071ZM27.1668 37.6611C27.1668 37.6611 27.1668 37.6224 27.1745 37.5992C27.1745 37.6224 27.1745 37.6379 27.1668 37.6611Z" fill="white"></path>
  <path d="M114.732 43.8636C112.227 43.8636 111.824 41.0641 112.273 38.6204L115.567 19.5577C115.854 17.9801 115.536 17.3924 114.137 17.3924H101.145C100.364 17.3924 99.6986 17.9492 99.5671 18.7148L98.4922 25.35C97.4327 21.3132 94.6642 17.23 89.1426 17.23C79.2207 17.23 73.9775 31.1577 73.9775 42.7809C73.9775 51.3572 76.6687 56.0977 82.9791 56.0977C87.3021 56.0977 91.8957 53.7622 94.7957 48.7278C95.3679 51.419 99.2578 56.3839 106.396 56.3839C116.836 56.3839 120.347 46.8177 117.856 42.5489C117.856 42.5489 117.014 43.8713 114.732 43.8713V43.8636ZM96.7213 35.2564L96.2263 38.2337C95.6618 41.2806 94.2853 42.6262 93.017 42.6262C91.5322 42.6262 90.6815 41.5668 90.6815 39.2932C90.6815 34.9006 92.3829 30.7942 95.0045 30.7942C96.1722 30.7942 96.9378 31.6449 96.9378 33.4854C96.9378 33.9804 96.8682 34.5449 96.729 35.2564H96.7213Z" fill="white"></path>
  <path d="M58.3246 16.7041C46.5313 16.7041 39.3934 22.8444 37.1585 34.4444C34.8617 46.3305 43.322 56.3684 55.5716 56.3684C69.5612 56.3684 71.0073 45.8588 69.3524 41.4353C67.2102 43.4382 65.1068 44.4049 60.7761 44.4049C56.8708 44.4049 54.3961 42.6417 53.6228 39.3086C55.123 40.5692 57.9689 41.3502 60.7297 41.3502C65.795 41.3502 71.5409 37.6305 72.523 32.6193C73.8918 25.6052 70.2494 16.7041 58.3324 16.7041H58.3246ZM60.111 30.5854C59.5852 32.7508 57.8065 34.3593 55.618 34.3593C54.0636 34.3593 53.6614 33.6788 53.6614 33.6788C54.6436 28.2732 56.8321 25.4505 58.8041 25.4505C60.1342 25.4505 60.7065 28.1185 60.111 30.5854Z" fill="white"></path>
  <path d="M194.361 24.2286L195.366 18.5137L203.881 12.9921C205.698 11.7934 206.216 11.0433 206.216 10.0998C206.216 9.06356 205.435 8.57635 204.043 8.57635C201.932 8.57635 199.426 9.35742 197.122 10.5252L198.197 4.51635C199.882 3.51102 202.156 2.53662 205.737 2.53662C210.547 2.53662 212.952 4.81022 212.952 8.83929C212.952 11.5382 211.196 13.9046 207.848 16.0854L203.788 18.7148C205.025 18.5833 206.417 18.5214 207.523 18.5214H211.065L210.06 24.2364H194.369L194.361 24.2286Z" fill="white"></path>
  <path d="M212.001 22.8361L212.975 17.3455C215.056 18.4204 217.685 18.7452 219.603 18.7452C221.845 18.7452 222.789 17.9951 222.789 16.8969C222.789 15.7988 222.039 15.5668 220.322 15.5668H217.074L217.785 11.4063H221.064C223.044 11.4063 223.856 10.6252 223.856 9.61987C223.856 8.61453 223.075 8.1892 221.42 8.1892C219.502 8.1892 216.772 8.57587 214.661 9.35693L215.605 3.99773C217.26 3.18573 219.603 2.53613 222.688 2.53613C228.179 2.53613 230.615 4.454 230.615 8.15827C230.615 10.4628 229.184 12.806 225.287 13.6489C228.11 14.1361 229.123 16.054 229.123 17.8713C229.123 21.5756 226.586 24.5993 219.765 24.5993C216.649 24.5993 213.687 23.8879 212.001 22.8439V22.8361Z" fill="white"></path>
</svg>
