<?xml version="1.0" encoding="UTF-8"?>
<svg xmlns="http://www.w3.org/2000/svg" width="342" height="146" viewBox="0 0 342 146" fill="none">
  <path d="M280.407 58.3032L279.415 64.0028H275.965L273.666 77.0753H266.506L268.806 64.0028H265.356L266.349 58.3032H280.407Z" fill="white"></path>
  <path d="M280.303 69.127C280.303 62.7477 284.484 57.937 291.696 57.937C297.392 57.937 300.423 61.179 300.423 66.1988C300.423 72.5782 296.242 77.3888 289.03 77.3888C283.334 77.3888 280.303 74.1469 280.303 69.127ZM287.306 68.2904C287.306 70.0682 288.037 71.3232 289.866 71.3232C292.218 71.3232 293.368 69.0747 293.368 67.0877C293.368 65.3099 292.636 64.0549 290.755 64.0549C288.455 64.0549 287.358 66.2511 287.306 68.2904Z" fill="white"></path>
  <path d="M302.357 71.0619C302.357 70.2776 302.514 69.441 302.618 68.6043L304.447 58.3032H311.607L309.673 69.2841C309.621 69.5978 309.569 69.807 309.569 70.0684C309.569 70.9051 309.935 71.428 310.771 71.428C311.868 71.428 312.286 70.539 312.495 69.2841L314.429 58.3032H321.589L319.551 69.7547C318.767 74.3039 316.154 77.389 310.039 77.389C304.604 77.389 302.357 74.8791 302.357 71.0619Z" fill="white"></path>
  <path d="M337.685 71.1665L340.246 77.0753H332.198L331.048 72.2646H329.428L328.592 77.0753H321.484L324.777 58.3032H334.027C338.992 58.3032 341.5 60.4994 341.5 64.6303C341.5 67.1925 340.246 69.7547 337.685 71.1665ZM330.891 63.8982L330.316 67.1925H332.041C333.609 67.1925 334.236 66.4081 334.236 65.3101C334.236 64.4734 333.818 63.8459 332.616 63.8459H330.891V63.8982Z" fill="white"></path>
  <path d="M243.355 84.3437C242.728 87.8471 243.459 91.5074 246.804 91.5074C249.678 91.5074 250.88 89.7295 250.88 89.7295C254.068 94.9585 250.044 108.606 234.418 108.606C226.422 108.606 219.054 102.854 220.099 91.5074C220.517 87.0105 222.712 76.8662 222.712 76.8662C222.817 76.5002 222.816 76.1865 222.816 75.925C222.816 74.304 222.137 73.206 220.413 73.206C218.374 73.206 216.859 74.6701 216.179 78.6964L211.528 105.992C211.319 107.037 210.431 107.822 209.386 107.822H191.878C190.519 107.822 189.474 106.619 189.736 105.26L194.648 76.8662C194.753 76.3956 194.753 76.1865 194.753 75.925C194.753 74.304 194.073 73.206 192.349 73.206C190.31 73.206 188.795 74.6701 188.116 78.6964L183.308 105.992C183.098 107.037 182.21 107.822 181.165 107.822H163.553C162.194 107.822 161.149 106.619 161.41 105.26L169.981 57.3621C170.19 56.3163 171.079 55.5843 172.124 55.5843H189.631C190.99 55.5843 192.035 56.8392 191.774 58.1465L190.31 65.7285C194.23 58.9831 199.352 55.2183 205.727 55.2183C213.41 55.2183 217.59 60.2381 217.59 67.3495C221.51 59.5583 226.997 55.2183 233.843 55.2183C241.526 55.2183 245.707 60.2381 245.707 67.6632C245.707 70.0686 245.445 72.7876 244.818 75.7682L243.146 85.4941" fill="white"></path>
  <path d="M35.619 82.5134C35.0442 85.8076 33.9989 91.5595 39.0682 91.5595C41.629 91.5595 42.9355 89.7817 42.9355 89.7817C46.855 96.6839 39.8521 108.606 27.7799 108.606C15.7078 108.606 11.0043 100.71 12.2586 90.8275C12.4676 89.0496 12.7812 87.5332 13.0425 85.7031L15.2374 72.9966H2.69488C1.17932 72.9966 0.134112 71.5325 0.604457 70.1207L4.94208 57.5711C5.41243 56.1593 6.19633 55.6887 7.45059 55.6887L18.2685 55.5841L19.7318 47.6361C19.9409 46.3811 21.0383 45.4922 22.2926 45.4922H38.9114C40.5315 45.4922 41.7858 46.9563 41.4722 48.5773L40.2179 55.5841H48.057C49.5726 55.5841 50.6178 57.0482 50.0952 58.5124L45.5485 71.5848C45.235 72.4737 44.3988 73.0489 43.5104 73.0489H37.2914L35.619 82.5134C35.7235 82.0428 35.0964 85.5462 35.619 82.5134Z" fill="white"></path>
  <path d="M154.512 91.5595C157.648 91.5595 158.745 89.7817 158.745 89.7817C162.142 95.5858 157.334 108.606 143.171 108.606C133.451 108.606 128.173 101.861 127.389 98.2003C123.417 105.05 117.198 108.24 111.345 108.24C102.774 108.24 99.1157 101.808 99.1157 90.1477C99.1157 74.3562 106.223 55.4272 119.706 55.4272C127.232 55.4272 130.995 60.97 132.406 66.4604L133.869 57.4665C134.078 56.4208 134.966 55.6887 136.012 55.6887H153.676C155.557 55.6887 156.027 56.473 155.609 58.6169L151.115 84.5527C150.592 87.7946 151.115 91.5595 154.512 91.5595ZM121.849 85.3893C121.849 88.4744 122.999 89.9385 125.037 89.9385C126.762 89.9385 128.643 88.1084 129.427 83.9775L130.106 79.9512C130.315 79.0099 130.42 78.2256 130.42 77.5458C130.42 75.0359 129.375 73.8856 127.807 73.8856C124.149 73.8333 121.849 79.376 121.849 85.3893Z" fill="white"></path>
  <path d="M97.1296 76.291C99.011 66.7743 94.0462 54.6431 77.8455 54.6431C61.6447 54.6431 52.1333 63.0094 49.1022 78.7487C45.9665 94.9062 57.4638 108.554 74.135 108.554C93.1578 108.554 95.0914 94.2787 92.8442 88.2654C89.9176 90.9845 87.0956 92.2917 81.1901 92.2917C75.8596 92.2917 72.5149 89.8864 71.4697 85.3372C73.5078 87.0627 77.3751 88.1085 81.1379 88.1085C88.0363 88.1608 95.8231 83.0887 97.1296 76.291ZM80.3017 73.5197C79.5701 76.4479 77.1661 78.6441 74.1872 78.6441C72.0445 78.6441 71.5219 77.7029 71.5219 77.7029C72.8807 70.33 75.8073 66.5129 78.5248 66.5129C80.354 66.5129 81.0856 70.1209 80.3017 73.5197Z" fill="white"></path>
  <path d="M171.078 3.86914V21.8045H174.893V8.10462L176.513 11.7649L181.896 21.8045H186.704V3.86914H182.889V15.4252L181.426 12.0786L177.088 3.86914H171.078Z" fill="white"></path>
  <path d="M146.829 3.86914H142.648V21.7523H146.829V3.86914Z" fill="white"></path>
  <path d="M137.841 16.4712C137.841 13.3338 136.221 11.8697 131.517 10.8239C128.904 10.2487 128.277 9.6735 128.277 8.83686C128.277 7.79107 129.218 7.37275 130.89 7.37275C132.981 7.37275 135.019 8.00023 136.952 8.88915V4.81055C135.123 3.97391 133.085 3.55559 131.047 3.60788C126.396 3.60788 123.992 5.5949 123.992 8.94144C123.992 11.5559 125.194 13.6998 130.002 14.5887C132.876 15.1639 133.451 15.6345 133.451 16.5758C133.451 17.517 132.876 18.0922 130.838 18.0922C128.382 18.0399 126.03 17.4124 123.887 16.2097V20.4975C125.351 21.2295 127.232 22.0139 130.786 22.0139C135.803 22.0139 137.788 19.7654 137.841 16.4712Z" fill="white"></path>
  <path d="M120.438 16.4712C120.438 13.3338 118.818 11.8697 114.114 10.8239C111.501 10.2487 110.874 9.6735 110.874 8.83686C110.874 7.79107 111.815 7.37275 113.487 7.37275C115.578 7.37275 117.616 8.00023 119.55 8.88915V4.81055C117.72 3.97391 115.682 3.55559 113.644 3.60788C108.993 3.60788 106.589 5.5949 106.589 8.94144C106.589 11.5559 107.791 13.6998 112.599 14.5887C115.473 15.1639 116.048 15.6345 116.048 16.5758C116.048 17.517 115.473 18.0922 113.435 18.0922C110.979 18.0399 108.627 17.4124 106.484 16.2097V20.4975C107.948 21.2295 109.829 22.0139 113.383 22.0139C118.452 22.0139 120.438 19.7654 120.438 16.4712Z" fill="white"></path>
  <path d="M74.2397 3.86914V21.8045H82.8627L84.1692 17.8828H78.4728V3.86914H74.2397Z" fill="white"></path>
  <path d="M57.3071 3.86914V7.73859H61.9583V21.8045H66.1392V7.73859H71.1039V3.86914H57.3071Z" fill="white"></path>
  <path d="M51.2449 3.86914H45.7576L39.4863 21.7523H44.2943L45.1827 18.7194C47.3777 19.3992 49.6771 19.3992 51.8721 18.7194L52.7605 21.7523H57.5162L51.2449 3.86914ZM48.4751 15.5298C47.6912 15.5298 46.9073 15.4252 46.1757 15.216L48.4751 7.37256L50.7746 15.216C50.043 15.4252 49.3113 15.5298 48.4751 15.5298Z" fill="white"></path>
  <path d="M97.5999 3.86914H92.1126L85.8413 21.7523H90.597L91.4854 18.7194C93.6281 19.3469 95.9798 19.3469 98.1748 18.7194L99.0632 21.7523H103.819L97.5999 3.86914ZM94.8824 15.5298C94.0985 15.5298 93.3146 15.4252 92.5829 15.216L94.8824 7.37256L97.1818 15.216C96.3979 15.4252 95.614 15.5298 94.8824 15.5298Z" fill="white"></path>
  <path d="M161.828 3.86914H156.341L150.07 21.7523H154.826L155.714 18.7194C157.857 19.3469 160.208 19.3469 162.403 18.7194L163.292 21.7523H168.047L161.828 3.86914ZM159.059 15.5298C158.275 15.5298 157.491 15.4252 156.759 15.216L159.059 7.37256L161.358 15.216C160.626 15.4252 159.843 15.5298 159.059 15.5298Z" fill="white"></path>
  <path d="M15.4467 10.1442C15.3422 10.0396 15.1331 9.93506 14.9764 9.93506C14.8718 9.98735 14.7151 10.0396 14.6628 10.1965L9.27996 21.0728C9.17544 21.2819 9.2277 21.5957 9.48901 21.7003C9.54127 21.7526 9.59353 21.7526 9.69805 21.7526H17.2236C17.3803 21.7526 17.5894 21.648 17.6416 21.4911C19.2617 18.2491 18.2688 13.1247 15.4467 10.1442Z" fill="url(#paint0_linear_2428_18437)"></path>
  <path d="M30.916 21.0728C30.8637 20.9159 20.7774 0.784347 20.5684 0.261449C20.4639 0.156869 20.3594 0.0522898 20.2026 0C20.0458 0 19.889 0.10458 19.7845 0.261449C17.067 4.54921 16.7534 9.7782 18.9483 14.2228L22.6066 21.4911C22.6588 21.648 22.8156 21.7526 23.0247 21.7526H30.6024C30.8637 21.7526 31.0728 21.5434 31.0728 21.282C30.9683 21.2297 30.916 21.1774 30.916 21.0728Z" fill="white"></path>
  <path d="M28.1459 126.019L24.8012 144.895H21.352L22.7108 137.052H13.8788L12.52 144.895H9.0708L12.4155 126.019H15.8647L14.4536 133.967H23.2857L24.6967 126.019H28.1459Z" fill="white"></path>
  <path d="M37.9711 126.019L34.6264 144.895H31.1772L34.5219 126.019H37.9711Z" fill="white"></path>
  <path d="M50.252 145.209C44.3989 145.209 41.1064 141.914 41.1064 136.738C41.1064 130.358 45.5486 125.705 53.1786 125.705C54.9032 125.705 57.0982 125.861 58.8228 126.594L58.2479 129.783C56.7323 129.103 54.6942 128.842 52.8128 128.842C47.0119 128.842 44.5556 132.136 44.5556 136.529C44.5556 139.927 46.437 142.124 50.5133 142.124C51.2972 142.124 52.447 142.071 53.4922 141.862L54.3284 137.208H49.9385L50.4088 134.332H57.9866L57.5163 137.208L56.3143 143.901C54.7987 144.738 52.4992 145.209 50.252 145.209Z" fill="white"></path>
  <path d="M81.6083 126.019L78.2636 144.895H74.8144L76.1732 137.052H67.3412L65.9824 144.895H62.5332L65.8256 126.019H69.2748L67.8638 133.967H76.6958L78.1068 126.019H81.6083Z" fill="white"></path>
  <path d="M95.1963 144.947L91.4858 126.071H95.1441L97.7048 142.385L105.962 126.071H109.882L99.4817 144.947H95.1963Z" fill="white"></path>
  <path d="M113.435 126.019H126.134L125.612 129.104H116.362L115.473 134.176H123.835L123.312 137.052H114.951L114.114 141.862H123.469L122.946 144.895H110.09L113.435 126.019Z" fill="white"></path>
  <path d="M135.019 126.019L132.249 141.758H140.297L139.775 144.947H128.225L131.57 126.071H135.019V126.019Z" fill="white"></path>
  <path d="M143.537 136.895C143.537 130.724 147.457 125.757 154.251 125.757C159.215 125.757 162.455 128.842 162.455 134.071C162.455 140.293 158.536 145.261 151.847 145.261C146.725 145.209 143.537 142.124 143.537 136.895ZM146.934 136.685C146.934 140.189 148.815 142.071 152.16 142.071C156.393 142.071 159.006 138.725 159.006 134.332C159.006 130.829 157.125 128.947 153.78 128.947C149.547 128.947 146.934 132.293 146.934 136.685Z" fill="white"></path>
  <path d="M179.179 144.163C177.872 144.895 175.886 145.209 174.214 145.209C169.04 145.209 165.643 142.176 165.643 137.104C165.643 130.829 169.719 125.757 176.879 125.757C178.97 125.757 181.008 126.175 182.21 126.803L181.635 130.045C180.171 129.365 178.865 129.051 176.827 129.051C172.019 129.051 169.197 132.398 169.197 136.738C169.197 140.241 171.235 141.967 174.789 141.967C176.67 141.967 178.29 141.601 179.753 140.921L179.179 144.163Z" fill="white"></path>
  <path d="M191.251 126.019L187.906 144.895H184.457L187.802 126.019H191.251Z" fill="white"></path>
  <path d="M209.542 126.019L209.02 129.104H203.689L200.919 144.895H197.418L200.188 129.104H194.857L195.38 126.019H209.542Z" fill="white"></path>
  <path d="M215.186 144.947L216.284 138.725L211.267 126.071H215.029L218.374 136.163L225.325 126.071H229.296L219.681 138.934L218.635 144.947H215.186Z" fill="white"></path>
  <path d="M242.936 126.019L239.592 144.895H236.143L239.487 126.019H242.936Z" fill="white"></path>
  <path d="M261.28 126.019L260.757 129.104H255.427L252.657 144.895H249.156L251.873 129.156H246.542L247.065 126.071H261.28V126.019Z" fill="white"></path>
  <path d="M268.126 145.209C264.834 145.209 262.43 144.529 260.966 143.692L261.541 140.45C263.161 141.339 265.774 141.967 268.074 141.967C271.262 141.967 272.202 140.712 272.202 139.457C272.202 138.097 271.262 137.47 268.649 136.79C264.886 135.901 263.109 133.966 263.109 131.404C263.109 127.901 265.722 125.652 270.635 125.652C273.561 125.652 275.547 126.384 276.801 127.116L276.279 130.358C274.397 129.365 272.411 128.79 270.478 128.79C267.812 128.79 266.558 129.731 266.558 131.247C266.558 132.502 267.551 133.287 270.164 133.914C273.77 134.855 275.704 136.319 275.704 139.457C275.704 142.594 273.457 145.209 268.126 145.209Z" fill="white"></path>
  <path d="M285.738 128.215L282.759 144.947H279.519L282.864 126.071H288.456L290.441 135.64L291.173 141.183L293.682 135.692L299.064 126.071H304.656L301.312 144.947H297.967L300.894 128.372L297.392 135.588L292.166 144.947H288.874L286.888 135.431L285.738 128.215Z" fill="white"></path>
  <defs>
    <linearGradient id="paint0_linear_2428_18437" x1="18.4703" y1="11.8719" x2="11.955" y2="23.155" gradientUnits="userSpaceOnUse">
      <stop stop-color="white" stop-opacity="0.4"></stop>
      <stop offset="0.92" stop-color="white"></stop>
    </linearGradient>
  </defs>
</svg>
