<?xml version="1.0" encoding="utf-8"?>
<!-- Generator: Adobe Illustrator 27.4.0, SVG Export Plug-In . SVG Version: 6.00 Build 0)  -->
<svg version="1.1" id="Layer_1" xmlns="http://www.w3.org/2000/svg" xmlns:xlink="http://www.w3.org/1999/xlink" x="0px" y="0px"
	 viewBox="0 0 768 70.1" style="enable-background:new 0 0 768 70.1;" xml:space="preserve">
<style type="text/css">
	.st0{opacity:0.5;}
	.st1{fill-rule:evenodd;clip-rule:evenodd;fill:url(#SVGID_1_);}
	.st2{fill:#FFFFFF;}
</style>
<g class="st0">
	
		<linearGradient id="SVGID_1_" gradientUnits="userSpaceOnUse" x1="384" y1="1680" x2="384" y2="1728" gradientTransform="matrix(1 0 0 1 0 -1678)">
		<stop  offset="0" style="stop-color:#000000;stop-opacity:0"/>
		<stop  offset="1" style="stop-color:#091E42"/>
	</linearGradient>
	<path class="st1" d="M28.4,2h28.6l0.8,0.4h6.7l1.7,0.1c0.9,0.1,0.9,0.1,1,0.2c0.1,0.1,0.3,0.3,1.5,0.9l1.7,0.3L72.1,4l1.7,0.7
		l3.5,0.4c0,0,3.5,0.4,4.6,0.3c1.1-0.2,2.5,0.1,2.5,0.1l3.2,1H95c1.1,0,1.7,0.1,1.7,0.1L99.3,7l2.5-0.2l2.1-0.2l1.4-0.5
		c1.4-0.5,2.5,0,2.5,0l1.7,0.6l1.1-0.2c0.5-0.1,1-0.2,1.4-0.3c0.1,0,0.1,0,0.2,0C112.7,6.1,113,6,113,6l1.4-0.7
		c0.5-0.3,0.7-0.3,0.7-0.4c0,0-0.4,0.1,0-0.4c0,0,1.7,0.1,2.8,0c1.1-0.2,2.8,0.6,2.8,0.6l1.1-0.2c0.6-0.1,1-0.3,1.3-0.5
		c0.3-0.2,0.5-0.4,0.5-0.4l1.4-0.6c1.4-0.6,2.1-0.2,2.1-0.2l2.1,0.4l1.1-0.2c0.4-0.1,0.8-0.1,1.3-0.1c0.6,0,1.2,0,2.3-0.2h1.4
		l3.2,0.4c0,0,2.1,0.1,3.9,0.1c0.9,0,0.9,0,0.8,0c-0.1,0-0.3-0.1,0.3-0.3c1.1-0.3,2.1,0,2.1,0h1.7l1.1,0.6l1.1,0.6l1.4,0.1
		c0.7,0.1,0.7,0.1,0.8,0.1c0,0,0.1-0.1,1-0.1c1.7,0,1.4,0.9,1.4,0.9l1.1,0.2c1.1,0.2,1.7-0.3,1.7-0.3l1.7-0.2l1.4-0.3l1.1-0.3
		c1.1-0.3,0.4-0.6,0.4-0.6l2.5-0.2l2.5-0.2l2.5-0.2l1.4-0.2c1.4-0.2,0.7-0.6,0.7-0.6l0.4-0.4c0.4-0.4,2.5-0.2,2.5-0.2l0.4,0.6
		l2.5,0.1l1.2,0.3l2.8,0.7l1.1-0.2c1.1-0.2,1.7,0.1,1.7,0.1l1.7,0.9c0,0,3.2,0.1,5.3,0.1h2.1l0.4,0.6l2.8,0.9h6.7c0.5,0,1,0,1.4-0.1
		c0.4,0,0.9-0.1,1.4-0.1c1.1,0,1.4-0.6,1.4-0.6h1.1c1.1,0,1.4-0.2,1.4-0.2l2.1,0.1l2.5,0.6l3.2,0.7l1.4,0.4l2.1,0.3h5.3
		c1.4,0,1.7,0.3,1.7,0.3l2.1,0.6l2.5,0.1l2.1,0.1l3.2,0.1h2.1l1.4,0.1l3.9,1.2h2.8c0,0,1.7,0.1,3.5,0.4c0.8,0.1,0.9,0.1,0.9,0.1
		c0.1,0,0.2-0.1,1.6,0c0.5,0,0.8,0.1,1,0.1c0.1,0,0.1,0,0.1,0s0,0-0.1,0c-0.2,0-0.4-0.1,0.1-0.1L259,10l1.7-0.2l1.7,0.1l2.1-0.6
		l1.7-0.3h5.3c0,0,1.7,0.1,3.2,0.1c0.7,0,0.7,0,0.8,0c0.1,0,0.1-0.1,1-0.1l5.3,2.2h2.5l1.4,0.6l1.4,0.4l2.5,0.6l3.9,0.3h2.5
		c0.9,0,1.1,0,1.1,0s-0.8-0.1-0.1-0.3c0.5-0.1,0.5-0.1,0.6-0.2c0.1-0.1,0.3-0.2,1.1-0.5l1.1,0.7l1.4,0.3l1.1,0.7l1.1,0.2
		c1.1,0.2,1.7,0.1,3.9,0h1.4l2.1-0.2l1.4,0.1l1.7,0.6l1.7,0.1l2.1-0.3l1.4-0.5l1.7,0.4l2.1,0.6l2.5,0.7l2.1,0.1h1.1
		c1.1,0,2.8-0.6,2.8-0.6l1.4-0.2l1.5,0.2c1.1-0.2,1.7,0.1,1.7,0.1l0.7,0.6l0.4,0.6l1.7,0.4l2.5-0.2l1.1-0.2c1.1-0.2,1.7-0.5,1.7-0.5
		l1.4-0.7l1.4-0.5l1.4,0.1v0.6l0.7,0.6l2.8,0.7h1.4c1.4,0,1.7,0.1,1.7,0.1h1.7l1.4,0.1l1.1-0.2c1.1-0.2,2.5,0.1,2.5,0.1
		s1.1,0.6,2.8,0.7h2.8c1.4,0,3.5,0.3,3.5,0.3s1.7,0.3,3.2,0.3c1.4,0,1.7-0.5,1.7-0.5h2.1c1.1,0,1.1,0,1,0c-0.1,0-0.3-0.1,0.5-0.1
		c1.4-0.2,2.5,0.4,2.5,0.4l1.1-0.2c1.1-0.2,1.7-0.2,1.7-0.2l1.7-0.3l2.1-0.2l1.4-0.3l1.4-0.5l1.4-0.3l1.4-0.6l1.7-0.6
		c0,0,2.8-0.2,3.9-0.3c1.1-0.2,1.7,0.1,1.7,0.1h3.9l1.1-0.2c1.1-0.2,2.5-0.2,2.5-0.2l2.1-0.2l1.1-0.3c1.1-0.3,0.7-0.6,0.7-0.6
		l1.7-0.6l1.4-0.3l1.7-0.2l3.2-0.6l5.3-0.5l1.4-0.2c1.4-0.2,3.5-0.5,3.5-0.5l3.2-0.3h2.8l3.5,0.1l1.1-0.2c1.1-0.2,1.4,0.4,1.4,0.4
		h1.4l1.1-0.2c1.1-0.2,1.1-0.9,1.1-0.9l1.4-0.6l1.7-0.2l1.1,0.2c1.1,0.2,1.4,0.6,1.4,0.6h3.5l1.7,0.1l1.7,0.1l1.7,0.4l1.7-0.3
		c0.9-0.2,0.9-0.2,0.9-0.2c0-0.1,0-0.2,0.9-0.5l2.1,0.1h2.1l3.9-0.2l1.4-0.3l3.2-0.2l1.4,0.1h1.1c0.4,0,0.7,0,1.1,0.1
		c0.5,0.1,0.9,0.1,1.7,0.1c0.4-0.1,0.9-0.1,1.4-0.1c0.8,0,1.5,0.1,1.5,0.1l1.1-0.5c1.1-0.5,2.1,0.1,2.1,0.1l1.7,0.4l2.5,0.4
		c0,0,1.4,0.1,3.2-0.3l1.7-0.7h1.4l1.7,0.9l3.2,0.1l1.1-0.2c1.1-0.2,2.1-0.3,2.1-0.3l1.4-0.3l1.7-0.2l1.7-0.2l2.1-0.2
		c0,0,3.9,0.1,5.3,0c0.5-0.1,0.7-0.1,0.7-0.1s-0.4,0.1,0,0.1h6l1.7,0.3l2.5,0.4l1.4-0.2l1.4-0.2l1.4,0.4l0.7,0.6l1.7,0.6l2.1,0.6
		l1.1,0.7l2.1,0.6l1.7,0.3l1.4,0.1l0.7,0.6v0.6l1.4,0.4l2.1-0.2h2.5l1.7-0.5l1.1-0.3c1.1-0.3,2.8-0.6,2.8-0.6l2.1,0.4l1.7,0.4
		l2.5,0.6l2.1,0.1l1.7-0.2l2.1,0.1l2.1-0.5c0.1,0,0.2,0,0.3,0c0.2,0,0.4-0.1,0.6-0.1c1.1-0.2,1.7-0.3,1.7-0.3h4.2l1.1-0.9l2.5-0.3
		c1.2-0.2,1.9-0.3,2.4-0.4c0.4-0.1,0.5-0.2,0.5-0.2l2.5-0.3c0.9-0.1,1.1-0.1,1.1-0.1s-0.8,0.1-0.1,0.1l10,1.2l2.5,0.6l1.7,0.4h2.5
		l1.1-0.3c1.1-0.3,1.7-0.6,1.7-0.6h1.1c1.1,0,1.7,0.6,1.7,0.6l1.7,0.9l1.4,0.1l1.1,0.7l2.1,0.7h2.5c0,0,3.2,0.7,4.9,0.7l2.8,0.9h1.1
		c0.6,0,1.1,0,1.4-0.1c0.4,0,0.7-0.1,0.7-0.1l1.1-0.2c1.1-0.2,1.4-0.5,1.4-0.5l1.4,0.3l1.7,0.6v0.7L637,17h1.4l1.4-0.5l2.8,0.1
		l1.4,0.7l1.4,0.3l1.7,0.7l2.5,0.1l1.7-0.2c0.9-0.1,0.9-0.1,0.9-0.1s0.1,0.1,1.2,0.1l2.5,0.4h2.1l2.8-0.2l1.4,0.6l1.1,0.2
		c1.1,0.2,1.4,0,1.4,0h1.7l1.7,0.1l1.7,0.4l0.4,0.9l1.4,0.7l0.7,0.7l1.1,0.2c1.1,0.2,3.2,0.3,3.2,0.3l1.4,0.1l3.2-0.6l1.4-0.3
		l1.1,0.7l0.7,0.6l1.1,0.7l2.1,0.6l1.7,0.1h3.5l2.1-0.2l2.1,0.3h0.1c0.2,0,0.6,0.1,1.6,0.3l0.7,0.7l1.4,0.1c1.4,0.1,1.4-0.2,1.4-0.2
		l2.1-0.2l1.1-0.2c0.4-0.1,0.5-0.1,0.6-0.1c0.2,0,0.3-0.1,1.9-0.4c1.2-0.2,1.2-0.2,1.1-0.2c-0.2,0-0.5,0,0-0.2
		c0.4-0.2,0.5-0.2,0.6-0.2c0.2-0.1,0.3-0.1,1.9-0.7l1.7-0.2h1.7l2.1,0.1c0,0,1.4,0.3,2.5,0.3c1.1,0,2.1-0.2,2.1-0.2l1.4-0.3
		c1.4-0.3,2.8,0,2.8,0l1.1-0.2c1.1-0.2,1.7-0.2,1.7-0.2l3.2-0.6L734,21l1.4-0.3l2.5,0.1l3.2,0.3c0,0,1.4,0,3.2-0.5l1.4-0.3l8.5-0.1
		l1.7-0.3h1.7L759,20h2.5c0.5,0,0.9,0,1.2-0.1c0.4,0,0.7-0.1,1.2-0.1c1.1,0,0.7-0.6,0.7-0.6L768,19v24.1l-3.5,0.2
		c0,0,0.4,0.6-0.7,0.6c-0.5,0-0.9,0-1.2,0.1c-0.4,0-0.7,0.1-1.2,0.1h-2.5l-1.4-0.2h-1.7l-1.7,0.3h-8.5l-1.4,0.3
		C742.5,45,741,45,741,45l-3.2-0.3l-2.5-0.2l-1.4,0.3l-2.1,0.9l-3.2,0.6c0,0-0.7,0-1.7,0.2l-1.1,0.2c0,0-1.4-0.3-2.8,0l-1.4,0.3
		c0,0-1.1,0.2-2.1,0.2s-2.5-0.3-2.5-0.3l-2.1-0.2h-1.7l-1.7,0.2c-1.2,0.5-1.6,0.6-1.8,0.6c-0.2,0.1-0.2,0.1-0.7,0.3
		c-0.5,0.2-0.2,0.2,0,0.2c0.2,0,0.2,0-1.1,0.2c-1.2,0.2-1.6,0.3-1.8,0.3c-0.2,0-0.2,0-0.7,0.1l-1.1,0.2l-2.1,0.2c0,0,0,0.3-1.4,0.2
		l-1.4-0.2l-0.7-0.7c-1-0.2-1.4-0.3-1.6-0.3h-0.1l-2.1-0.3l-2.1,0.2h-3.5l-1.7-0.2l-2.1-0.6l-0.7-0.1l-0.7-0.6l-1.1-0.7l-1.4,0.3
		l-3.2,0.6l-1.4-0.2c0,0-2.1-0.1-3.2-0.3l-1.1-0.2l-0.7-0.7l-1.4-0.7l-0.4-0.9l-1.7-0.5l-1.7-0.2H665c0,0-0.4,0.2-1.4,0l-1.1-0.2
		l-1.4-0.6l-2.8,0.2h-2.1l-2.5-0.5c-1.1,0-1.2,0-1.2-0.1c0,0,0,0-0.9,0.1l-1.9,0.2l-2.5-0.2l-1.7-0.7l-1.4-0.3l-1.4-0.8l-2.8-0.2
		l-1.4,0.5h-1.4l-0.7-0.6V39l-1.7-0.6l-1.4-0.3c0,0-0.4,0.3-1.4,0.5l-1.1,0.2c0,0-0.3,0.1-0.7,0.1c-0.4,0.1-0.9,0.1-1.4,0.1h-1.1
		l-2.8-0.9c-1.7,0-4.9-0.7-4.9-0.7h-2.5l-2.1-0.7l-1.1-0.7l-1.4-0.2l-1.7-0.9c0,0-0.7-0.6-1.7-0.6h-1.1c0,0-0.7,0.3-1.7,0.6
		l-1.1,0.3h-2.5l-1.7-0.5l-2.5-0.6h-9.1c-0.5,0-0.2-0.1,0-0.1c0.2,0,0.2,0-1.1,0.1l-2.5,0.3c0,0-0.1,0.1-0.5,0.2
		c-0.4,0.1-1.1,0.2-2.4,0.4l-2.5,0.3l-1.1,0.9h-4.2c0,0-0.7,0.1-1.7,0.3c-0.3,0-0.5,0.1-0.6,0.1c-0.2,0-0.3,0-0.4,0l-2.1,0.5
		l-2.1-0.2l-1.7,0.2l-2.1-0.2l-2.5-0.6l-1.7-0.5l-2.1-0.5c0,0-1.7,0.3-2.8,0.6l-1.1,0.3l-1.7,0.5h-2.5l-2.1,0.2l-1.4-0.5v-0.6
		l-0.7-0.6l-1.4-0.2l-1.7-0.3l-2.1-0.6l-1.1-0.7l-2.1-0.6l-1.7-0.6l-0.7-0.6l-1.4-0.5l-1.4,0.2l-1.4,0.2l-2.5-0.5l-1.7-0.3h-6
		c-0.4,0,0-0.1,0-0.1s-0.1,0-0.7,0.1c-1.4,0.2-5.3,0-5.3,0l-2.1,0.2l-1.7,0.2l-1.7,0.2l-1.4,0.3c0,0-1.1,0.1-2.1,0.3l-1.1,0.2
		l-3.2-0.2l-1.7-0.9h-1.4l-1.7,0.7c-1.7,0.5-3.2,0.3-3.2,0.3l-2.5-0.5l-1.7-0.5c0,0-1.1-0.6-2.1-0.2l-1.1,0.5c0,0-0.7-0.1-1.5-0.1
		c-0.4,0-0.9,0-1.4,0.1c-0.8,0.1-1.3,0-1.7-0.1c-0.3,0-0.6-0.1-1.1-0.1h-1.1l-1.4-0.2l-3.2,0.2l-1.4,0.3l-3.9,0.2h-2.1l-2.1-0.2
		c-0.9,0.4-0.9,0.5-0.9,0.5c0,0.1,0,0.1-0.9,0.2l-1.7,0.3l-1.7-0.5l-1.7-0.2l-1.7-0.2h-4c0,0-0.4-0.5-1.4-0.6l-1.1-0.2l-1.7,0.2
		l-1.4,0.6c0,0,0,0.7-1.1,0.9l-1.1,0.2h-1.4c0,0-0.4-0.6-1.4-0.5l-1.1,0.2l-3.5-0.2h-2.8l-3.2,0.3c0,0-2.1,0.3-3.5,0.5l-1.4,0.2
		l-5.3,0.5l-3.2,0.6l-1.7,0.2l-1.4,0.3l-1.7,0.6c0,0,0.4,0.3-0.7,0.6l-1.1,0.3l-2.1,0.2c0,0-1.4,0-2.5,0.2l-1.1,0.2h-3.9
		c0,0-0.7-0.3-1.7-0.2c-1.1,0.1-3.9,0.3-3.9,0.3l-1.7,0.6l-1.4,0.6l-1.4,0.3l-1.4,0.5l-1.4,0.3l-2.1,0.2l-1.7,0.3c0,0-0.7,0-1.7,0.2
		l-1.1,0.2c0,0-1.1-0.6-2.5-0.5c-0.7,0.1-0.5,0.1-0.5,0.1c0.1,0,0.1,0-1,0H376c0,0-0.3,0.5-1.7,0.5c-1.4,0-3.2-0.3-3.2-0.3
		s-2.1-0.3-3.5-0.3h-2.8c-1.7-0.1-2.8-0.7-2.8-0.7s-1.4-0.3-2.5-0.2l-1.1,0.2l-1.4-0.2h-1.7c0,0-0.3-0.2-1.7-0.2h-1.4l-2.8-0.7
		l-0.7-0.6v-0.6l-1.4-0.2l-1.4,0.5l-1.4,0.7c0,0-0.7,0.3-1.7,0.5l-1.1,0.2l-2.5,0.2l-1.7-0.5l-0.4-0.6l-0.7-0.6c0,0-0.7-0.3-1.7-0.2
		l-1.1,0.2l-1.4,0.2c0,0-1.7,0.6-2.8,0.6h-1.1l-2.1-0.2l-2.5-0.7l-2.1-0.6l-1.7-0.5l-1.4,0.5l-2.1,0.3l-1.7-0.2l-1.7-0.6l-1.4-0.2
		l-2.1,0.2H308c-2.1,0.2-2.8,0.2-3.9,0l-1.1-0.2l-1.1-0.7l-1.4-0.3l-1.1-0.7c-1,0.4-1.1,0.5-1.2,0.6c-0.1,0-0.1,0.1-0.6,0.2
		c-0.7,0.2,0.1,0.3,0.1,0.3s-0.2,0-1.2,0H294l-3.9-0.3l-2.5-0.6l-1.4-0.5l-1.4-0.6h-2.5l-5.3-2.3c-0.9,0.1-0.9,0.1-1,0.1
		c0,0,0,0-0.8,0c-1.4,0-3.2-0.2-3.2-0.2h-5.7l-1.7,0.3l-2.1,0.6l-1.7-0.2l-1.7,0.2l-3.9,0.2c-0.5,0-0.3,0-0.1,0.1
		c-0.2,0-0.5,0-1-0.1c-1.4-0.1-1.5,0-1.6,0s-0.2,0-0.9-0.1c-1.8-0.3-3.5-0.5-3.5-0.5h-2.8l-3.9-1.2l-1.4-0.2h-2.1l-3.2-0.2l-2.1-0.2
		l-2.5-0.2l-2.1-0.6c0,0-0.3-0.3-1.7-0.3h-5.3l-2.1-0.3l-1.4-0.5l-3.2-0.7l-2.5-0.6l-2.1-0.2c0,0-0.4,0.2-1.4,0.2h-1.1
		c0,0-0.4,0.6-1.4,0.6c-0.5,0-1,0-1.4,0.1c-0.4,0-0.9,0.1-1.4,0.1h-6.7l-2.8-0.9l-0.4-0.6h-2.1c-2.1,0-5.3-0.2-5.3-0.2l-1.7-0.9
		c0,0-0.7-0.3-1.7-0.2l-1.1,0.2l-2.8-0.7l-1.4-0.2l-2.5-0.2l-0.4-0.6c0,0-2.1-0.3-2.5,0.2l-0.4,0.5c0,0,0.7,0.5-0.7,0.6l-1.4,0.2
		l-2.5,0.2l-2.5,0.2l-2.5,0.2c0,0,0.7,0.3-0.4,0.6l-1.1,0.3l-1.4,0.3l-1.7,0.2c0,0-0.7,0.5-1.7,0.3l-1.1-0.2c0,0,0.3-0.9-1.4-0.9
		c-0.9,0-1,0-1,0.1c0,0-0.1,0-0.7-0.1l-1.4-0.2l-1.1-0.6l-1.1-0.6h-1.7c0,0-1.1-0.3-2.1,0c-0.5,0.1-0.4,0.2-0.3,0.3
		c0.1,0,0.1,0-0.8,0c-1.7,0-3.9-0.2-3.9-0.2l-3.2-0.5h-1.4c-1,0.2-1.7,0.2-2.3,0.2c-0.4,0-0.8,0-1.3,0.1l-1.1,0.2l-2.1-0.5
		c0,0-0.7-0.5-2.1,0.2l-1.4,0.6c0,0-0.2,0.2-0.5,0.4c-0.3,0.2-0.7,0.4-1.3,0.5l-1.1,0.2c0,0-1.7-0.8-2.8-0.6c-1.1,0.2-2.8,0-2.8,0
		c-0.4,0.5,0,0.4,0,0.4s-0.1,0.1-0.7,0.4l-1.4,0.7c0,0-0.3,0.1-0.8,0.2c-0.1,0-0.1,0-0.2,0c-0.5,0.1-1,0.3-1.5,0.3l-1.1,0.2
		l-1.7-0.6c0,0-1.1-0.5-2.5,0l-1.4,0.5l-2.1,0.2l-2.6-0.5l-2.5-0.3c0,0-0.7-0.2-1.7-0.2h-7.4l-3.2-1.1c0,0-1.4-0.3-2.5-0.2
		c-1.1,0.2-4.6-0.3-4.6-0.3L73.6,24l-1.7-0.7l-1.4-0.2l-1.7-0.3c-1.2-0.5-1.4-0.8-1.5-0.9s-0.1-0.1-1-0.2l-1.7-0.2h-6.7l-1.4-0.7
		l-1.4-0.5l-2-0.5L45.6,18c0,0-1.4,0.2-1.7,0.6L43.5,19H41c0,0-1.8-0.5-2.5,0c-0.4,0.2-0.1,0.2-0.1,0.2s-0.2,0.1-0.6,0.3l0,0
		c-0.7,0.3-0.5,0.4-0.3,0.5c0.1,0.1,0.1,0.1-1.1,0.1c-1.2,0.1-1.2,0.1-1.2,0.1s0,0-1.2,0h-2.5L29,20.7l-1.7,0.6l-2.8,0.9
		c0,0,0,0.5-1.1,0.7c-0.6,0.2-0.4,0.2-0.4,0.2s-0.1,0-0.7,0.1l-1.4,0.2l-3.2,0.2h-1.4c0,0-0.4-0.3-1.4-0.3h-1.1l-2.1-0.2
		c-1.2,0.1-1.8,0.1-2.3,0.1c-0.5,0-0.8,0-1.6,0.1l-1.4,0.2c0,0-0.7-0.1-2.1-0.3L2.8,23L0,22.6V2h0.3v1.8l2.8,0.4l1.4,0.1
		c1.4,0.1,2.1,0.3,2.1,0.3L8,4.4c0.7-0.1,1.1-0.1,1.6-0.1c0.5,0,1.1,0,2.3-0.1L14,4.4h1.1c1.1,0,1.4,0.3,1.4,0.3h1.4l3.2-0.2
		l1.4-0.2c0.6-0.1,0.7-0.1,0.7-0.1s-0.3,0,0.4-0.2c1.1-0.3,1.1-0.7,1.1-0.7l2.8-0.9L28.4,2z M255.1,31.1H255
		C255.1,31.1,255.1,31.1,255.1,31.1z"/>
</g>
<path class="st2" d="M768,41.9v28.2H0V20.5L2.8,21l1.4,0.2c1.4,0.2,2.1,0.3,2.1,0.3l1.4-0.2c0.7-0.1,1.1-0.1,1.6-0.1s1.1,0,2.3-0.1
	l2.1,0.2h1c1.1,0,1.4,0.3,1.4,0.3h1.4l3.2-0.2l1.4-0.2c0.6-0.1,0.7-0.1,0.7-0.1s-0.3,0,0.4-0.2c1.1-0.3,1.1-0.8,1.1-0.8l2.8-0.9
	l1.7-0.6l2.5-0.5h2.5c1.2,0,1.2,0,1.2,0s0-0.1,1.2-0.1c1.2-0.1,1.2-0.1,1.1-0.1c-0.1,0-0.2-0.1-0.2-0.1c0-0.1,0.1-0.2,0.5-0.3
	c0.4-0.2,0.6-0.3,0.6-0.3s-0.3,0.1,0.1-0.2c0.7-0.5,2.5,0,2.5,0h2.5l0.4-0.5c0.4-0.5,1.8-0.6,1.8-0.6l7.4,1.8l1.8,0.6l1.4,0.5
	l1.4,0.7h6.7l1.8,0.2c0.9,0.1,0.9,0.1,1,0.2s0.3,0.3,1.5,0.9l1.7,0.3l1.4,0.2l1.7,0.8l3.5,0.4c0,0,3.5,0.5,4.6,0.3s2.5,0.2,2.5,0.2
	l3.2,1.1h7.4c1.1,0,1.7,0.2,1.7,0.2l2.5,0.3l2.5-0.2l2.1-0.2l1.4-0.5c1.4-0.5,2.5,0,2.5,0l1.7,0.6l1.1-0.2c0.5-0.1,1-0.2,1.5-0.3
	c0.1,0,0.1,0,0.2,0c0.5-0.1,0.8-0.2,0.8-0.2l1.4-0.7c0.5-0.3,0.7-0.4,0.7-0.4s-0.4,0.1,0-0.4c0,0,1.7,0.2,2.8,0
	c1.1-0.2,2.8,0.6,2.8,0.6l1.1-0.2c0.6-0.1,1-0.3,1.3-0.5s0.5-0.4,0.5-0.4l1.4-0.6c1.4-0.6,2.1-0.2,2.1-0.2l2.1,0.5l1.1-0.2
	c0.4-0.1,0.8-0.1,1.3-0.1c0.6,0,1.2,0,2.3-0.2h1.4l3.2,0.5c0,0,2.1,0.2,3.9,0.2c0.9,0,0.9,0,0.8,0c-0.1,0-0.2-0.1,0.3-0.3
	c1.1-0.3,2.1,0,2.1,0h1.7l1.1,0.6l1.1,0.6l1.4,0.2c0.7,0.1,0.7,0.1,0.8,0.1c0,0,0.1-0.1,1-0.1c1.7,0,1.4,0.9,1.4,0.9l1,0.2
	c1.1,0.2,1.8-0.3,1.8-0.3l1.7-0.2l1.4-0.3l1.1-0.3c1.1-0.3,0.4-0.6,0.4-0.6l5-0.3l2.5-0.2l1.4-0.2c1.4-0.2,0.7-0.6,0.7-0.6l0.4-0.4
	c0.4-0.5,2.5-0.2,2.5-0.2l0.4,0.6l2.5,0.2l1.4,0.2l2.8,0.8l1.1-0.2c1.1-0.2,1.7,0.2,1.7,0.2l1.7,0.9c0,0,3.2,0.2,5.3,0.2h2.1
	l0.4,0.6l2.8,0.9h6.7c0.5,0,1,0,1.4-0.1c0.4,0,0.9-0.1,1.4-0.1c1.1,0,1.4-0.6,1.4-0.6h1.1c1.1,0,1.4-0.2,1.4-0.2l2.1,0.2l2.5,0.6
	l3.2,0.8l1.4,0.4l2.1,0.3h5.3c1.4,0,1.7,0.3,1.7,0.3l2.1,0.6l2.5,0.2l2.1,0.2l3.2,0.2h2.1l1.4,0.2l3.9,1.2h2.8c0,0,1.7,0.2,3.5,0.5
	c0.8,0.1,0.9,0.1,0.9,0.1c0.1,0,0.2-0.1,1.5,0c0.4,0,0.7,0,0.9,0.1c-0.2,0-0.2-0.1,0.2-0.1l3.9-0.2l1.7-0.2l1.7,0.2l2.1-0.6l1.7-0.3
	h5.3c0,0,1.7,0.2,3.2,0.2c0.7,0,0.7,0,0.8,0c0,0,0.1-0.1,1-0.1l5.3,2.3h2.5l1.4,0.6l1.4,0.5l2.5,0.6l3.9,0.3h2.5c0.9,0,1.2,0,1.2,0
	s-0.8-0.1-0.1-0.3c0.4-0.1,0.5-0.1,0.6-0.2c0.1,0,0.2-0.1,1.2-0.6l1.1,0.7l1.4,0.3l1.1,0.7l1.1,0.2c1.1,0.2,1.7,0.2,3.9,0h1.4
	l2.1-0.2l1.4,0.2l1.7,0.6l1.7,0.2l2.1-0.3l1.4-0.5l1.8,0.5l2.1,0.6l2.5,0.7l2.1,0.2h1.1c1.1,0,2.8-0.6,2.8-0.6l1.4-0.2l1.1-0.2
	c1.1-0.2,1.7,0.2,1.7,0.2l0.7,0.6l0.4,0.6l1.7,0.5l2.5-0.2l1.1-0.2c1.1-0.2,1.7-0.5,1.7-0.5l1.4-0.8l1.4-0.4l1.4,0.2V35l0.7,0.6
	l2.8,0.8h1.4c1.4,0,1.8,0.2,1.8,0.2h1.7l1.4,0.2l1.1-0.2c1.1-0.2,2.5,0.2,2.5,0.2s1.1,0.6,2.8,0.8h2.8c1.4,0,3.5,0.3,3.5,0.3
	s1.7,0.3,3.2,0.3c1.4,0,1.7-0.5,1.7-0.5h2.1c1.1,0,1.1,0,1,0s-0.3-0.1,0.5-0.1c1.4-0.2,2.5,0.5,2.5,0.5l1-0.2
	c1.1-0.2,1.8-0.2,1.8-0.2l1.7-0.3l2.1-0.2l1.4-0.3l1.4-0.5l1.4-0.3l1.4-0.6l1.8-0.6c0,0,2.8-0.2,3.9-0.3c1-0.2,1.7,0.2,1.7,0.2h3.9
	l1.1-0.2c1.1-0.2,2.5-0.2,2.5-0.2l2.1-0.2l1.1-0.3c1.1-0.3,0.7-0.6,0.7-0.6l1.7-0.6l1.4-0.3l1.7-0.2l3.2-0.6l5.3-0.5l1.4-0.2
	c1.4-0.2,3.5-0.4,3.5-0.4l3.2-0.3h2.8l3.6,0.2l1.1-0.2c1.1-0.2,1.4,0.5,1.4,0.5h1.4l1.1-0.2c1.1-0.2,1.1-0.9,1.1-0.9l1.4-0.6
	l1.7-0.2l1.1,0.2c1.1,0.2,1.4,0.6,1.4,0.6h3.6l1.7,0.2l1.8,0.2l1.7,0.5l1.7-0.3c0.9-0.1,0.9-0.1,0.9-0.2s0-0.2,0.9-0.6l2.1,0.2h2.1
	l3.9-0.2l1.4-0.3l3.2-0.2l1.4,0.2h1c0.4,0,0.8,0,1.1,0.1c0.5,0.1,0.9,0.1,1.7,0.1c0.4-0.1,0.9-0.1,1.4-0.1c0.8,0,1.5,0.1,1.5,0.1
	l1.1-0.5c1-0.5,2.1,0.2,2.1,0.2l1.8,0.5l2.5,0.5c0,0,1.4,0.2,3.2-0.3l1.7-0.8h1.4l1.7,0.9l3.2,0.2l1.1-0.2c1.1-0.2,2.1-0.3,2.1-0.3
	l1.4-0.3l1.7-0.2l1.8-0.2l2.1-0.2c0,0,3.9,0.2,5.3,0c0.4,0,0.6-0.1,0.6-0.1c-0.1,0-0.3,0.1,0,0.1h6l1.7,0.3l2.5,0.5l1.4-0.2l1.4-0.2
	l1.4,0.5l0.7,0.6l1.7,0.6l2.1,0.6l1.1,0.8l2.1,0.6l1.7,0.3l1.4,0.2l0.7,0.6v0.6l1.4,0.5l2.1-0.2h2.5l1.7-0.5l1.1-0.3
	c1-0.3,2.8-0.6,2.8-0.6l2.1,0.5l1.8,0.4l2.5,0.6l2.1,0.2l1.8-0.2l2.1,0.2l2.1-0.5c0.1,0,0.2,0,0.4,0c0.1,0,0.4,0,0.6-0.1
	c1-0.2,1.7-0.3,1.7-0.3h4.2l1.1-0.9l2.5-0.3c1.2-0.2,1.9-0.3,2.4-0.4c0.4-0.1,0.5-0.2,0.5-0.2l2.5-0.3c0.8-0.1,1.1-0.1,1.2-0.1
	c0,0,0,0-0.1,0c-0.2,0-0.5,0.1,0,0.1h8.8l2.5,0.6l1.7,0.5h2.5l1.1-0.3c1.1-0.3,1.7-0.6,1.7-0.6h1.1c1.1,0,1.8,0.6,1.8,0.6l1.7,0.9
	l1.4,0.2l1.1,0.7l2.1,0.8h2.5c0,0,3.2,0.8,4.9,0.8l2.8,0.9h1.1c0.6,0,1.1,0,1.4-0.1c0.4,0,0.7-0.1,0.7-0.1l1-0.2
	c1.1-0.2,1.4-0.5,1.4-0.5l1.4,0.3l1.7,0.6v0.7l0.7,0.6h1.4l1.4-0.5L642,38l1.4,0.8l1.4,0.3l1.8,0.8L649,40l1.7-0.2
	c0.9-0.1,0.9-0.1,0.9-0.1s0.1,0.1,1.2,0.1l2.5,0.5h2.1l2.8-0.2l1.4,0.6l1.1,0.2c1.1,0.2,1.4,0,1.4,0h1.8l1.7,0.2l1.7,0.5l0.4,0.9
	l1.4,0.8l0.7,0.8l1.1,0.2c1.1,0.2,3.2,0.3,3.2,0.3l1.4,0.2l3.2-0.6l1.4-0.3l1.1,0.8L684,45l1.1,0.8l2.1,0.6l1.7,0.2h3.5l2.1-0.2
	l2.1,0.3h0.1c0.2,0,0.6,0.1,1.6,0.3l0.7,0.8l1.4,0.2c1.4,0.2,1.4-0.2,1.4-0.2l2.1-0.2l1.1-0.2c0.5-0.1,0.5-0.1,0.7-0.1
	s0.5-0.1,1.8-0.3c1.2-0.2,1.2-0.2,1.1-0.2s-0.5,0,0-0.2s0.5-0.2,0.7-0.3s0.5-0.2,1.8-0.6l1.7-0.2h1.8l2.1,0.2c0,0,1.4,0.3,2.5,0.3
	s2.1-0.2,2.1-0.2l1.4-0.3c1.4-0.3,2.8,0,2.8,0l1.1-0.2c1.1-0.2,1.7-0.2,1.7-0.2l3.2-0.6l2.1-0.9l1.4-0.3l2.5,0.2l3.2,0.3
	c0,0,1.4,0,3.2-0.5l1.4-0.3h8.5l1.7-0.3h1.8l1.4,0.2h2.5c0.5,0,0.9,0,1.2-0.1c0.4,0,0.7-0.1,1.2-0.1c1.1,0,0.7-0.6,0.7-0.6L768,41.9
	z"/>
</svg>
