<?xml version="1.0" encoding="utf-8"?>
<!-- Generator: Adobe Illustrator 17.1.0, SVG Export Plug-In . SVG Version: 6.00 Build 0)  -->
<!DOCTYPE svg PUBLIC "-//W3C//DTD SVG 1.1//EN" "http://www.w3.org/Graphics/SVG/1.1/DTD/svg11.dtd">
<svg version="1.1" id="Layer_1" xmlns="http://www.w3.org/2000/svg" xmlns:xlink="http://www.w3.org/1999/xlink" x="0px" y="0px"
	 viewBox="0 0 14 11.4" enable-background="new 0 0 14 11.4" xml:space="preserve">
<path fill="#60A9DC" d="M13.8,1.5c-0.5,0.2-1,0.4-1.6,0.4c0.6-0.3,1-0.9,1.2-1.5c-0.5,0.3-1.1,0.6-1.8,0.7c-0.5-0.5-1.2-0.9-2-0.9
	C8.1,0.2,6.9,1.4,6.9,3c0,0.2,0,0.4,0.1,0.6C4.6,3.5,2.6,2.4,1.2,0.7C1,1.1,0.8,1.6,0.8,2.1c0,1,0.5,1.8,1.2,2.3
	c-0.5,0-0.9-0.1-1.3-0.3c0,0,0,0,0,0c0,1.4,1,2.5,2.2,2.7C2.8,6.9,2.5,7,2.3,7c-0.2,0-0.4,0-0.5-0.1C2.1,8,3.2,8.8,4.4,8.8
	C3.4,9.6,2.2,10,0.9,10c-0.2,0-0.4,0-0.7,0c1.2,0.8,2.7,1.3,4.3,1.3c5.1,0,7.9-4.3,7.9-7.9c0-0.1,0-0.2,0-0.4
	C13,2.6,13.5,2.1,13.8,1.5z"/>
</svg>
